# xmcd CD database file
#
# Track frame offsets:
#	150
#	16664
#	31017
#	45043
#	67701
#	81727
#	98004
#	107840
#	127746
#	145765
#	156909
#	165007
#
# Disc length: 2416 seconds
#
# Revision: 0
# Processed by: cddbd v1.5.2PL0 Copyright (c) Steve Scherf et al.
# Submitted via: CDex 1.70beta2
#
DISCID=79096e0c
DTITLE=Tracy Chapman - Let it rain
DYEAR=2002
DGENRE=Jazz
TTITLE0=Let it rain
TTITLE1=Another Sun
TTITLE2=You're the one
TTITLE3=In the Dark
TTITLE4=Almost
TTITLE5=Hard wired
TTITLE6=Say Hallelujah
TTITLE7=Broken
TTITLE8=Happy
TTITLE9=Goodgye
TTITLE10=I am yours
TTITLE11=Over in Love
EXTD=YEAR: 2002
EXTT0=
EXTT1=
EXTT2=
EXTT3=
EXTT4=
EXTT5=
EXTT6=
EXTT7=
EXTT8=
EXTT9=
EXTT10=
EXTT11=
PLAYORDER=
